<svg xmlns="http://www.w3.org/2000/svg" width="37.646" height="25.235" viewBox="0 0 37.646 25.235">
  <g id="Grupo_27" data-name="Grupo 27" transform="translate(0)">
    <path id="Caminho_23" data-name="Caminho 23" d="M739.352,1169.492h-34.42a1.615,1.615,0,0,1-1.613-1.613V1145.87a1.615,1.615,0,0,1,1.613-1.613h34.42a1.615,1.615,0,0,1,1.613,1.613v22.009A1.615,1.615,0,0,1,739.352,1169.492Zm-34.42-24.822a1.2,1.2,0,0,0-1.2,1.2v22.009a1.2,1.2,0,0,0,1.2,1.2h34.42a1.2,1.2,0,0,0,1.2-1.2V1145.87a1.2,1.2,0,0,0-1.2-1.2Z" transform="translate(-703.319 -1144.257)" fill="#222"/>
    <g id="Grupo_25" data-name="Grupo 25" transform="translate(4.648 7.86)">
      <path id="Caminho_24" data-name="Caminho 24" d="M822.934,1189.826h.939l-.469-1.166Z" transform="translate(-802.839 -1187.335)" fill="#222" fill-rule="evenodd"/>
      <path id="Caminho_25" data-name="Caminho 25" d="M733.036,1189.826h.939l-.469-1.166Z" transform="translate(-731.537 -1187.335)" fill="#222" fill-rule="evenodd"/>
      <path id="Caminho_26" data-name="Caminho 26" d="M788.753,1188.514H787.8v.7h.965a.377.377,0,0,0,.382-.351A.382.382,0,0,0,788.753,1188.514Z" transform="translate(-774.973 -1187.22)" fill="#222" fill-rule="evenodd"/>
      <path id="Caminho_27" data-name="Caminho 27" d="M750.324,1182.257v.787l-.526-.787h-1.912v1.381l-.593-1.37-3.328-.012a2.213,2.213,0,0,0-1.425.5v-.5H732.284l-.348,1-.359-1h-2.285v1.388l-.6-1.388h-1.838l-1.063,2.478v1.974H727.1l.28-.7h.753l.282.7H739.1v-.7l.57.7h2.872v-.494a1.883,1.883,0,0,0,1.25.494h1.9l.278-.7h.755l.282.7h2.809v-.79l.5.79h1.93v-4.451Zm-21.532,3.881-.263-.667h-1.538l-.265.667h-.933l1.433-3.333h1.087l1.432,3.333Zm5.218,0h-.833v-2.456l-.883,2.456h-.731l-.886-2.456v2.456h-.833v-3.333l1.326,0,.771,2.149.753-2.154h1.316Zm3.289-2.587h-1.877v.57h1.833v.7h-1.833v.592H737.3v.724h-2.719v-3.333H737.3Zm2.666,2.588-1-1.184h-.351v1.184h-.833v-3.333h1.854a1.078,1.078,0,0,1,1.165,1.081,1.015,1.015,0,0,1-.914,1.024l1.1,1.228Zm2.027,0h-.851v-3.333h.851Zm2.017,0h-.184a1.469,1.469,0,0,1-1.428-1.653,1.527,1.527,0,0,1,1.655-1.68h.921v.789h-.954a.8.8,0,0,0-.778.9.816.816,0,0,0,.9.917h.219Zm3.378,0-.263-.667h-1.538l-.264.667h-.933l1.433-3.333h1.087l1.432,3.333Zm4.3,0h-1.025l-1.387-2.149v2.149h-.833v-3.333H749.5l1.353,2.094v-2.094h.833Z" transform="translate(-725.788 -1182.257)" fill="#222" fill-rule="evenodd"/>
    </g>
    <g id="Grupo_26" data-name="Grupo 26" transform="translate(10.151 13.693)">
      <path id="Caminho_28" data-name="Caminho 28" d="M808.257,1216.708h-.952v.7h.965a.376.376,0,0,0,.382-.351A.382.382,0,0,0,808.257,1216.708Z" transform="translate(-795.947 -1215.414)" fill="#222" fill-rule="evenodd"/>
      <path id="Caminho_29" data-name="Caminho 29" d="M791.9,1216.751h-.924v.767h.921a.384.384,0,0,0,.414-.384A.376.376,0,0,0,791.9,1216.751Z" transform="translate(-782.999 -1215.448)" fill="#222" fill-rule="evenodd"/>
      <path id="Caminho_30" data-name="Caminho 30" d="M758.136,1210.454l-.522.659-.506-.659H752.4v4.451h4.683l.513-.673.5.673h2.829v-1.031h.636a1.567,1.567,0,0,0,.807-.167v1.2h1.868v-.7l.57.7h9.472a1.977,1.977,0,0,0,.965-.307v-1.324a1,1,0,0,1-1.087,1.061h-1.705v-.724h1.6c.247,0,.354-.133.354-.28s-.107-.282-.354-.282h-.683a.932.932,0,0,1-1.02-1c0-.534.334-1.05,1.307-1.05h1.591v-.548Zm-2.452,1.294h-1.877v.57h1.833v.7h-1.833v.592h1.877v.724h-2.719V1211h2.719Zm3.738,2.588h-1.05l-.784-1.026-.765,1.026H755.79l1.324-1.646L755.758,1211h1.05l.807,1.043.81-1.043h1.009l-1.338,1.666Zm1.831-1.052h-.877v1.052h-.855V1211h1.841a1.1,1.1,0,0,1,1.2,1.121A1.153,1.153,0,0,1,761.254,1213.283Zm3.849,1.052-1-1.184h-.351v1.184h-.833V1211h1.854a1.078,1.078,0,0,1,1.165,1.081,1.015,1.015,0,0,1-.914,1.024l1.1,1.228Zm3.9-2.588H767.13v.57h1.824v.7H767.13v.592h1.877v.724h-2.719V1211h2.719Zm2.162,2.588h-1.776v-.724h1.668c.247,0,.353-.133.353-.28s-.107-.282-.353-.282h-.754a.932.932,0,0,1-1.02-1c0-.534.334-1.05,1.307-1.05h1.623l-.351.75h-1.4c-.268,0-.351.141-.351.275a.29.29,0,0,0,.307.29h.789a.914.914,0,0,1,1.047.957A1,1,0,0,1,771.168,1214.335Z" transform="translate(-752.395 -1210.454)" fill="#222" fill-rule="evenodd"/>
      <path id="Caminho_31" data-name="Caminho 31" d="M853.181,1213.854c-.268,0-.351.141-.351.275a.29.29,0,0,0,.307.29h.719a.914.914,0,0,1,1.047.957V1213.1l-.351.75Z" transform="translate(-832.055 -1212.556)" fill="#222" fill-rule="evenodd"/>
    </g>
  </g>
</svg>
