<svg xmlns="http://www.w3.org/2000/svg" width="37.646" height="25.235" viewBox="0 0 37.646 25.235">
  <g id="Grupo_44" data-name="Grupo 44" transform="translate(0)">
    <g id="Grupo_41" data-name="Grupo 41" transform="translate(0)">
      <path id="Caminho_52" data-name="Caminho 52" d="M279.352,1339.492h-34.42a1.615,1.615,0,0,1-1.613-1.613V1315.87a1.615,1.615,0,0,1,1.613-1.613h34.42a1.615,1.615,0,0,1,1.613,1.613v22.009A1.615,1.615,0,0,1,279.352,1339.492Zm-34.42-24.822a1.2,1.2,0,0,0-1.2,1.2v22.009a1.2,1.2,0,0,0,1.2,1.2h34.42a1.2,1.2,0,0,0,1.2-1.2V1315.87a1.2,1.2,0,0,0-1.2-1.2Z" transform="translate(-243.319 -1314.257)" fill="#222"/>
    </g>
    <g id="Grupo_43" data-name="Grupo 43" transform="translate(7.477 3.93)">
      <g id="Grupo_42" data-name="Grupo 42" transform="translate(2.479 12.96)">
        <path id="Caminho_53" data-name="Caminho 53" d="M291.451,1395.911h1.724a5.044,5.044,0,0,1,.764.042,1.126,1.126,0,0,1,.45.178,1.1,1.1,0,0,1,.331.36.975.975,0,0,1,.133.505,1.007,1.007,0,0,1-.164.556,1.019,1.019,0,0,1-.442.379,1.135,1.135,0,0,1,.606.391,1.041,1.041,0,0,1,.212.651,1.28,1.28,0,0,1-.137.572,1.159,1.159,0,0,1-.373.444,1.238,1.238,0,0,1-.584.2q-.218.023-1.05.029h-1.468Zm.871.717v1h.57q.508,0,.632-.014a.572.572,0,0,0,.352-.155.456.456,0,0,0,.128-.337.47.47,0,0,0-.111-.324.5.5,0,0,0-.328-.152q-.13-.015-.744-.015Zm0,1.716v1.153h.806a3.926,3.926,0,0,0,.6-.026.535.535,0,0,0,.316-.172.528.528,0,0,0,.122-.366.558.558,0,0,0-.094-.329.528.528,0,0,0-.272-.2,2.922,2.922,0,0,0-.772-.062Z" transform="translate(-291.451 -1395.911)" fill="#222"/>
        <path id="Caminho_54" data-name="Caminho 54" d="M311.517,1402.9a1.691,1.691,0,0,1,.2-.8,1.4,1.4,0,0,1,.575-.589,1.709,1.709,0,0,1,.831-.2,1.559,1.559,0,0,1,1.162.461,1.593,1.593,0,0,1,.453,1.164,1.611,1.611,0,0,1-.457,1.175,1.544,1.544,0,0,1-1.152.466,1.811,1.811,0,0,1-.82-.194,1.333,1.333,0,0,1-.593-.569A1.894,1.894,0,0,1,311.517,1402.9Zm.847.044a1.034,1.034,0,0,0,.221.712.722.722,0,0,0,1.087,0,1.05,1.05,0,0,0,.219-.718,1.03,1.03,0,0,0-.219-.706.721.721,0,0,0-1.087,0A1.034,1.034,0,0,0,312.364,1402.947Z" transform="translate(-307.366 -1400.196)" fill="#222"/>
        <path id="Caminho_55" data-name="Caminho 55" d="M330.235,1400.224v-4.312h.826v4.313Z" transform="translate(-322.213 -1395.911)" fill="#222"/>
        <path id="Caminho_56" data-name="Caminho 56" d="M339.212,1403.515l.823.138a1.344,1.344,0,0,1-.5.69,1.471,1.471,0,0,1-.857.237,1.4,1.4,0,0,1-1.206-.532,1.785,1.785,0,0,1-.309-1.077,1.724,1.724,0,0,1,.406-1.216,1.334,1.334,0,0,1,1.026-.44,1.388,1.388,0,0,1,1.1.461,2.038,2.038,0,0,1,.385,1.411h-2.071a.834.834,0,0,0,.2.572.627.627,0,0,0,.477.2.5.5,0,0,0,.327-.106A.653.653,0,0,0,339.212,1403.515Zm.047-.836a.8.8,0,0,0-.185-.546.57.57,0,0,0-.43-.187.576.576,0,0,0-.447.2.766.766,0,0,0-.173.535Z" transform="translate(-327.707 -1400.196)" fill="#222"/>
        <path id="Caminho_57" data-name="Caminho 57" d="M354.65,1397.426v.658h-.565v1.259a3.125,3.125,0,0,0,.016.446.178.178,0,0,0,.074.1.233.233,0,0,0,.139.041,1.062,1.062,0,0,0,.333-.079l.071.642a1.665,1.665,0,0,1-.653.123,1.046,1.046,0,0,1-.4-.074.592.592,0,0,1-.264-.195.776.776,0,0,1-.116-.322,4.145,4.145,0,0,1-.026-.582v-1.363h-.38v-.658h.38v-.621l.829-.482v1.1Z" transform="translate(-340.17 -1396.238)" fill="#222"/>
        <path id="Caminho_58" data-name="Caminho 58" d="M363.3,1402.9a1.691,1.691,0,0,1,.2-.8,1.4,1.4,0,0,1,.575-.589,1.711,1.711,0,0,1,.832-.2,1.559,1.559,0,0,1,1.162.461,1.591,1.591,0,0,1,.453,1.164,1.609,1.609,0,0,1-.457,1.175,1.545,1.545,0,0,1-1.152.466,1.807,1.807,0,0,1-.819-.194,1.327,1.327,0,0,1-.593-.569A1.894,1.894,0,0,1,363.3,1402.9Zm.847.044a1.036,1.036,0,0,0,.22.712.722.722,0,0,0,1.087,0,1.051,1.051,0,0,0,.219-.718,1.031,1.031,0,0,0-.219-.706.721.721,0,0,0-1.087,0A1.036,1.036,0,0,0,364.148,1402.947Z" transform="translate(-348.439 -1400.196)" fill="#222"/>
      </g>
      <rect id="Retângulo_17" data-name="Retângulo 17" width="0.498" height="17.375" fill="#222"/>
      <rect id="Retângulo_18" data-name="Retângulo 18" width="0.498" height="17.375" transform="translate(22.195)" fill="#222"/>
      <rect id="Retângulo_19" data-name="Retângulo 19" width="0.498" height="11.389" transform="translate(21.281)" fill="#222"/>
      <rect id="Retângulo_20" data-name="Retângulo 20" width="1.432" height="11.389" transform="translate(19.232)" fill="#222"/>
      <rect id="Retângulo_21" data-name="Retângulo 21" width="0.499" height="11.389" transform="translate(16.708)" fill="#222"/>
      <rect id="Retângulo_22" data-name="Retângulo 22" width="1.744" height="11.389" transform="translate(14.421)" fill="#222"/>
      <rect id="Retângulo_23" data-name="Retângulo 23" width="0.498" height="11.389" transform="translate(12.635)" fill="#222"/>
      <rect id="Retângulo_24" data-name="Retângulo 24" width="1.466" height="11.389" transform="translate(10.802)" fill="#222"/>
      <rect id="Retângulo_25" data-name="Retângulo 25" width="0.748" height="11.389" transform="translate(1.204)" fill="#222"/>
      <rect id="Retângulo_26" data-name="Retângulo 26" width="0.498" height="11.389" transform="translate(2.576)" fill="#222"/>
      <rect id="Retângulo_27" data-name="Retângulo 27" width="0.498" height="11.389" transform="translate(4.156)" fill="#222"/>
      <rect id="Retângulo_28" data-name="Retângulo 28" width="0.499" height="11.389" transform="translate(8.894)" fill="#222"/>
      <rect id="Retângulo_29" data-name="Retângulo 29" width="0.498" height="11.389" transform="translate(7.73)" fill="#222"/>
      <rect id="Retângulo_30" data-name="Retângulo 30" width="1.554" height="11.389" transform="translate(5.226)" fill="#222"/>
      <rect id="Retângulo_31" data-name="Retângulo 31" width="0.686" height="11.389" transform="translate(18.277)" fill="#222"/>
    </g>
  </g>
</svg>
