<svg xmlns="http://www.w3.org/2000/svg" width="37.646" height="25.235" viewBox="0 0 37.646 25.235">
  <g id="Grupo_55" data-name="Grupo 55" transform="translate(0)">
    <path id="Caminho_99" data-name="Caminho 99" d="M1199.352,1339.492h-34.42a1.615,1.615,0,0,1-1.613-1.613V1315.87a1.615,1.615,0,0,1,1.613-1.613h34.42a1.615,1.615,0,0,1,1.613,1.613v22.009A1.615,1.615,0,0,1,1199.352,1339.492Zm-34.42-24.822a1.2,1.2,0,0,0-1.2,1.2v22.009a1.2,1.2,0,0,0,1.2,1.2h34.42a1.2,1.2,0,0,0,1.2-1.2V1315.87a1.2,1.2,0,0,0-1.2-1.2Z" transform="translate(-1163.319 -1314.257)" fill="#222"/>
    <g id="Grupo_54" data-name="Grupo 54" transform="translate(9.929 4.15)">
      <path id="Caminho_100" data-name="Caminho 100" d="M1219.731,1337.944a19.871,19.871,0,0,0-3.282.285,6.236,6.236,0,0,1,4.923-2.388,6.362,6.362,0,0,1,3.944,1.384c.179.149.317.163.455.027s.124-.271-.028-.448a6.955,6.955,0,0,0-11.832,2.008,12.493,12.493,0,0,0-2.372.991c-.193.109-.262.244-.193.407a.3.3,0,0,0,.4.149c.607-.176,1.227-.326,1.875-.461a5.316,5.316,0,0,0-.11,1.058,6.834,6.834,0,0,0,3.172,5.862c.193.122.358.122.469-.027s.1-.285-.069-.434a5.979,5.979,0,0,1-1.931-4.41,5.815,5.815,0,0,1,.483-2.348c.648-.054,1.351-.095,2.124-.095,5.02,0,9.254,1.655,9.254,3.826,0,1.1-1.393,2.2-3.048,2.931-.4.176-.441.3-.386.475s.234.217.441.149c2.9-.95,5.089-2.51,5.089-4.4C1229.109,1339.926,1224.971,1337.944,1219.731,1337.944Z" transform="translate(-1211.32 -1334.32)" fill="#222"/>
      <path id="Caminho_101" data-name="Caminho 101" d="M1256.793,1392.944v-5.494a.232.232,0,0,0-.371-.192l-1.4.8v5.147l1.5,0A.267.267,0,0,0,1256.793,1392.944Z" transform="translate(-1245.985 -1376.276)" fill="#222"/>
      <path id="Caminho_102" data-name="Caminho 102" d="M1246.806,1393.515v3.8a.172.172,0,0,0,.172.172h1.057v-4.879l-1.055.608A.324.324,0,0,0,1246.806,1393.515Z" transform="translate(-1239.466 -1380.551)" fill="#222"/>
    </g>
  </g>
</svg>
