<svg id="Grupo_24" data-name="Grupo 24" xmlns="http://www.w3.org/2000/svg" width="37.646" height="25.235" viewBox="0 0 37.646 25.235">
  <path id="Caminho_18" data-name="Caminho 18" d="M509.352,1169.492h-34.42a1.615,1.615,0,0,1-1.613-1.613V1145.87a1.615,1.615,0,0,1,1.613-1.613h34.42a1.615,1.615,0,0,1,1.613,1.613v22.009A1.615,1.615,0,0,1,509.352,1169.492Zm-34.42-24.822a1.2,1.2,0,0,0-1.2,1.2v22.009a1.2,1.2,0,0,0,1.2,1.2h34.42a1.2,1.2,0,0,0,1.2-1.2V1145.87a1.2,1.2,0,0,0-1.2-1.2Z" transform="translate(-473.319 -1144.257)" fill="#222"/>
  <g id="Grupo_23" data-name="Grupo 23" transform="translate(3.413 8.605)">
    <path id="Caminho_19" data-name="Caminho 19" d="M513.5,1194.717v4.346a2.325,2.325,0,0,0,0-4.346Z" transform="translate(-508.603 -1192.885)" fill="#222"/>
    <path id="Caminho_20" data-name="Caminho 20" d="M498.189,1196.89a2.331,2.331,0,0,0,1.5,2.172v-4.345A2.333,2.333,0,0,0,498.189,1196.89Z" transform="translate(-496.458 -1192.885)" fill="#222"/>
    <path id="Caminho_21" data-name="Caminho 21" d="M495.766,1185.859h-1.891a3.962,3.962,0,0,0-4.055,4.047,4.025,4.025,0,0,0,4.055,3.978h1.891a4.175,4.175,0,0,0,4.2-3.978A4.1,4.1,0,0,0,495.766,1185.859Zm-1.883,7.678a3.673,3.673,0,1,1,3.681-3.673A3.677,3.677,0,0,1,493.883,1193.537Z" transform="translate(-489.819 -1185.859)" fill="#222"/>
  </g>
  <path id="Caminho_22" data-name="Caminho 22" d="M543.616,1191.341c0-.38-.2-.355-.389-.359v-.11c.165.008.334.008.5.008s.419-.008.732-.008a1.539,1.539,0,0,1,1.691,1.477c0,.418-.245,1.469-1.742,1.469-.215,0-.414-.008-.613-.008s-.377,0-.567.008v-.11c.253-.025.376-.034.389-.321Zm.414,1.979c0,.325.233.363.44.363a1.177,1.177,0,0,0,1.214-1.317,1.269,1.269,0,0,0-1.323-1.359c-.174,0-.254.012-.33.017Zm2.267.388h.08c.118,0,.2,0,.2-.14v-1.143c0-.186-.063-.211-.22-.3v-.068c.2-.059.436-.139.452-.152a.15.15,0,0,1,.076-.021c.021,0,.03.025.03.059v1.62c0,.14.093.14.212.14h.072v.11c-.144,0-.292-.008-.444-.008s-.3,0-.461.008Zm.453-2.469a.207.207,0,1,1,0-.414.207.207,0,0,1,.207.2A.211.211,0,0,1,546.75,1191.24Zm.854,1.211c0-.156-.047-.2-.245-.278v-.08a5.66,5.66,0,0,0,.558-.2c.013,0,.025.009.025.042v.274a1.242,1.242,0,0,1,.732-.317c.359,0,.486.262.486.591v1.089c0,.14.093.14.211.14h.076v.11c-.148,0-.3-.008-.448-.008s-.3,0-.457.008v-.11h.076c.119,0,.2,0,.2-.14v-1.093c0-.241-.147-.359-.389-.359a1.132,1.132,0,0,0-.491.2v1.249c0,.14.094.14.212.14h.076v.11c-.148,0-.3-.008-.448-.008s-.3,0-.456.008v-.11h.076c.118,0,.2,0,.2-.14Zm2.166.2a1.013,1.013,0,0,0,0,.245.705.705,0,0,0,.621.73.811.811,0,0,0,.571-.283l.059.059a.992.992,0,0,1-.782.477.848.848,0,0,1-.808-.92c0-.827.558-1.072.854-1.072a.671.671,0,0,1,.715.662.525.525,0,0,1,0,.076l-.038.025Zm.749-.135c.106,0,.118-.055.118-.105a.358.358,0,0,0-.368-.388c-.258,0-.435.19-.486.494Zm.579,1.19h.114c.118,0,.2,0,.2-.14v-1.186c0-.131-.156-.156-.22-.19v-.063c.309-.131.478-.241.517-.241s.037.013.037.055v.38h.009c.105-.165.283-.435.541-.435a.23.23,0,0,1,.241.224.2.2,0,0,1-.2.215c-.132,0-.132-.1-.279-.1a.357.357,0,0,0-.309.351v.991c0,.14.084.14.2.14h.237v.11c-.233,0-.409-.008-.592-.008s-.351,0-.5.008Zm1.628-.477a.557.557,0,0,0,.533.515.3.3,0,0,0,.342-.3c0-.5-.922-.338-.922-1.017a.581.581,0,0,1,.656-.54,1.114,1.114,0,0,1,.482.123l.03.43h-.1a.434.434,0,0,0-.461-.418.3.3,0,0,0-.33.279c0,.494.981.342.981,1,0,.278-.224.574-.727.574a1.115,1.115,0,0,1-.516-.144l-.047-.485Zm5.032-1.6h-.106a.8.8,0,0,0-.9-.692,1.2,1.2,0,0,0-1.193,1.338,1.376,1.376,0,0,0,1.26,1.465.86.86,0,0,0,.85-.73l.1.025-.1.616a2.369,2.369,0,0,1-.935.224,1.5,1.5,0,0,1-1.615-1.587,1.554,1.554,0,0,1,1.6-1.486,3.054,3.054,0,0,1,1,.224Zm.152,2.072h.08c.119,0,.2,0,.2-.14v-2.35c0-.275-.064-.283-.224-.33v-.067a2.721,2.721,0,0,0,.436-.182.437.437,0,0,1,.093-.047c.026,0,.034.025.034.059v2.916c0,.14.093.14.211.14h.071v.11c-.143,0-.292-.008-.444-.008s-.3,0-.461.008Zm2.715-.123c0,.076.046.081.118.081.051,0,.114,0,.169,0v.089a4.34,4.34,0,0,0-.609.131l-.021-.013v-.342a1.142,1.142,0,0,1-.749.354.456.456,0,0,1-.465-.5V1192.3c0-.109-.017-.215-.253-.236v-.08c.152,0,.49-.029.545-.029s.047.029.047.122v1.089c0,.127,0,.49.368.49a.944.944,0,0,0,.511-.257v-1.136c0-.084-.2-.131-.355-.173v-.076c.38-.025.617-.059.659-.059s.034.029.034.076Zm.841-1.393a1.068,1.068,0,0,1,.63-.3.822.822,0,0,1,.786.887,1.066,1.066,0,0,1-1.011,1.106,1.248,1.248,0,0,1-.588-.148l-.127.1-.089-.046a5.007,5.007,0,0,0,.059-.751v-1.815c0-.275-.064-.283-.224-.33v-.067a2.694,2.694,0,0,0,.436-.182.429.429,0,0,1,.093-.047c.025,0,.034.025.034.059Zm0,1.148a.455.455,0,0,0,.435.431c.453,0,.643-.443.643-.819a.805.805,0,0,0-.676-.835.652.652,0,0,0-.4.2Zm-18.244,2.931h.032c.083,0,.17-.011.17-.131v-1.2c0-.12-.087-.131-.17-.131h-.032v-.069c.09,0,.228.009.341.009s.253-.009.361-.009v.069h-.032c-.082,0-.17.011-.17.131v1.2c0,.12.088.131.17.131h.032v.069c-.11,0-.249-.009-.363-.009s-.249.009-.338.009Zm2.283-.384,0,0v-.861a.19.19,0,0,0-.2-.216h-.051v-.069c.108,0,.214.009.322.009s.189-.009.283-.009v.069h-.034c-.1,0-.205.018-.205.292v1.045a1.506,1.506,0,0,0,.014.232h-.088l-1.185-1.318V1196c0,.2.039.268.216.268h.039v.069c-.1,0-.2-.009-.3-.009s-.209.009-.313.009v-.069h.032c.159,0,.207-.108.207-.291v-.967a.206.206,0,0,0-.209-.207h-.03v-.069c.087,0,.177.009.264.009.069,0,.136-.009.205-.009Zm.7-1.036c-.173,0-.179.041-.214.209h-.069c.009-.064.021-.129.027-.2a1.345,1.345,0,0,0,.014-.195h.055c.018.069.076.066.138.066h1.187c.062,0,.12,0,.124-.071l.055.009c-.009.062-.018.124-.025.186s0,.124,0,.186l-.069.025c0-.085-.016-.221-.17-.221h-.377v1.222c0,.177.081.2.191.2h.044v.069c-.09,0-.251-.009-.375-.009s-.3.009-.389.009v-.069h.044c.127,0,.191-.011.191-.193v-1.227Zm1.392,1.419h.032c.083,0,.17-.011.17-.131v-1.2c0-.12-.088-.131-.17-.131H547.6v-.069c.14,0,.38.009.573.009s.432-.009.589-.009c0,.1,0,.25.005.351l-.069.018c-.011-.149-.039-.269-.281-.269H548.1v.6h.273c.138,0,.168-.078.182-.2h.069q-.007.135-.007.269t.007.262l-.069.014c-.014-.138-.021-.227-.18-.227H548.1v.535c0,.149.133.149.28.149.276,0,.4-.018.467-.28l.064.016c-.03.122-.057.244-.078.365-.148,0-.412-.009-.619-.009s-.481.009-.612.009Zm1.62-1.291c0-.167-.092-.174-.163-.174h-.042v-.069c.074,0,.216.009.357.009s.248-.009.37-.009c.29,0,.548.078.548.4a.434.434,0,0,1-.32.4l.393.588a.255.255,0,0,0,.223.138v.069c-.076,0-.15-.009-.225-.009s-.145.009-.216.009a6.446,6.446,0,0,1-.479-.744h-.151v.492c0,.177.083.183.188.183h.042v.069c-.131,0-.264-.009-.4-.009-.111,0-.219.009-.334.009v-.069h.042c.085,0,.163-.038.163-.124Zm.295.533h.112c.23,0,.354-.087.354-.358a.314.314,0,0,0-.336-.335,1.194,1.194,0,0,0-.13.009Zm2.634.374,0,0v-.861a.19.19,0,0,0-.2-.216h-.05v-.069c.108,0,.214.009.322.009s.188-.009.284-.009v.069h-.035c-.1,0-.2.018-.2.292v1.045a1.515,1.515,0,0,0,.013.232H552.2l-1.185-1.318V1196c0,.2.039.268.216.268h.039v.069c-.1,0-.2-.009-.3-.009s-.21.009-.313.009v-.069h.032c.159,0,.207-.108.207-.291v-.967a.206.206,0,0,0-.209-.207h-.03v-.069c.087,0,.177.009.265.009.068,0,.135-.009.2-.009Zm.729.125a.912.912,0,0,0-.051.179c0,.069.1.08.173.08h.026v.069c-.092-.005-.186-.009-.279-.009s-.165,0-.248.009v-.069h.014a.208.208,0,0,0,.2-.149l.369-1.054a1.931,1.931,0,0,0,.085-.285,1.178,1.178,0,0,0,.209-.1.048.048,0,0,1,.018-.005.016.016,0,0,1,.016.007c.007.018.013.039.021.057l.423,1.2c.028.08.055.165.085.234a.146.146,0,0,0,.152.091h.014v.069c-.1-.005-.207-.009-.317-.009s-.228,0-.345.009v-.069h.025c.053,0,.143-.009.143-.067a.732.732,0,0,0-.046-.165l-.09-.266h-.522Zm.336-1.018h0l-.214.65h.43Zm.992-.142c-.173,0-.18.041-.214.209h-.069c.009-.064.021-.129.028-.2a1.372,1.372,0,0,0,.013-.195h.056c.018.069.076.066.138.066h1.188c.062,0,.119,0,.124-.071l.055.009c-.009.062-.018.124-.025.186s-.005.124-.005.186l-.069.025c0-.085-.016-.221-.17-.221h-.377v1.222c0,.177.081.2.191.2h.044v.069c-.09,0-.251-.009-.375-.009s-.3.009-.389.009v-.069h.044c.127,0,.191-.011.191-.193v-1.227Zm1.4,1.419h.032c.083,0,.17-.011.17-.131v-1.2c0-.12-.087-.131-.17-.131h-.032v-.069c.09,0,.228.009.34.009s.253-.009.361-.009v.069h-.032c-.083,0-.171.011-.171.131v1.2c0,.12.088.131.171.131h.032v.069c-.11,0-.249-.009-.363-.009s-.249.009-.338.009Zm1.62-1.568a.806.806,0,0,1,.881.792.843.843,0,0,1-.87.879.812.812,0,0,1-.861-.824A.836.836,0,0,1,557.229,1194.7Zm.035,1.571c.446,0,.524-.393.524-.728s-.181-.742-.563-.742c-.4,0-.522.358-.522.666C556.7,1195.882,556.891,1196.275,557.264,1196.275Zm2.4-.386,0,0v-.861a.19.19,0,0,0-.2-.216h-.05v-.069c.108,0,.214.009.322.009s.189-.009.284-.009v.069h-.035c-.1,0-.2.018-.2.292v1.045a1.468,1.468,0,0,0,.014.232h-.087l-1.185-1.318V1196c0,.2.039.268.216.268h.039v.069c-.1,0-.2-.009-.3-.009s-.21.009-.313.009v-.069h.033c.159,0,.207-.108.207-.291v-.967a.206.206,0,0,0-.209-.207h-.03v-.069c.088,0,.177.009.265.009.069,0,.135-.009.2-.009Zm.729.125a.963.963,0,0,0-.05.179c0,.069.1.08.172.08h.026v.069c-.092-.005-.187-.009-.279-.009s-.166,0-.248.009v-.069h.013a.208.208,0,0,0,.2-.149l.369-1.054a1.879,1.879,0,0,0,.085-.285,1.189,1.189,0,0,0,.21-.1.047.047,0,0,1,.018-.005.015.015,0,0,1,.016.007l.021.057.423,1.2c.028.08.055.165.085.234a.146.146,0,0,0,.152.091h.014v.069c-.1-.005-.207-.009-.318-.009s-.228,0-.345.009v-.069h.025c.052,0,.143-.009.143-.067a.739.739,0,0,0-.047-.165l-.089-.266h-.522Zm.336-1.018h0l-.214.65h.431Zm1.47,1.121c0,.092.064.119.138.129a1.692,1.692,0,0,0,.3,0,.33.33,0,0,0,.221-.124.531.531,0,0,0,.071-.166H563c-.025.131-.057.26-.085.391-.2,0-.405-.009-.607-.009s-.405.009-.607.009v-.069h.032c.083,0,.173-.011.173-.154v-1.18c0-.12-.09-.131-.173-.131H561.7v-.069c.122,0,.241.009.363.009s.233-.009.35-.009v.069h-.058c-.087,0-.156,0-.156.124Z" transform="translate(-528.763 -1181.009)" fill="#222"/>
</svg>
