<svg xmlns="http://www.w3.org/2000/svg" width="37.646" height="25.235" viewBox="0 0 37.646 25.235">
  <g id="Grupo_34" data-name="Grupo 34" transform="translate(0)">
    <g id="Grupo_32" data-name="Grupo 32">
      <path id="Caminho_38" data-name="Caminho 38" d="M1429.352,1169.492h-34.42a1.615,1.615,0,0,1-1.613-1.613V1145.87a1.615,1.615,0,0,1,1.613-1.613h34.42a1.615,1.615,0,0,1,1.613,1.613v22.009A1.615,1.615,0,0,1,1429.352,1169.492Zm-34.42-24.822a1.2,1.2,0,0,0-1.2,1.2v22.009a1.2,1.2,0,0,0,1.2,1.2h34.42a1.2,1.2,0,0,0,1.2-1.2V1145.87a1.2,1.2,0,0,0-1.2-1.2Z" transform="translate(-1393.319 -1144.257)" fill="#222"/>
    </g>
    <g id="Grupo_33" data-name="Grupo 33" transform="translate(3.723 6.045)">
      <path id="Caminho_39" data-name="Caminho 39" d="M1455.4,1200.361l-.016.012C1455.394,1200.373,1455.4,1200.371,1455.4,1200.361Z" transform="translate(-1446.27 -1194.801)" fill="#222" fill-rule="evenodd"/>
      <path id="Caminho_40" data-name="Caminho 40" d="M1506.51,1206.853c-.1.792.852.7,1.191.366a1.957,1.957,0,0,0,.382-1.069C1507.307,1206.055,1506.591,1206.2,1506.51,1206.853Z" transform="translate(-1486.815 -1199.371)" fill="#222" fill-rule="evenodd"/>
      <path id="Caminho_41" data-name="Caminho 41" d="M1454.37,1201.079c-.05.25-.087.524-.137.809a3.1,3.1,0,0,0-.122.84c.068.626.931.632,1.282.26a2.328,2.328,0,0,0,.443-1.68C1455.732,1200.606,1454.716,1200.656,1454.37,1201.079Z" transform="translate(-1445.255 -1195.125)" fill="#222" fill-rule="evenodd"/>
      <path id="Caminho_42" data-name="Caminho 42" d="M1471.313,1200.64a.91.91,0,0,0-.87.763h1.542C1472.125,1200.813,1471.786,1200.621,1471.313,1200.64Z" transform="translate(-1458.213 -1195.021)" fill="#222" fill-rule="evenodd"/>
      <path id="Caminho_43" data-name="Caminho 43" d="M1419.609,1173.481h-3.13c-1.383.065-2.514.622-2.84,1.771-.17.6-.264,1.257-.4,1.878-.677,3.158-1.277,6.4-1.924,9.5h24.367c1.884,0,3.177-.4,3.527-1.893.162-.694.318-1.481.473-2.244.606-2.975,1.212-5.95,1.832-9.008Zm-.7,4.092a.369.369,0,0,1,.26-.138.363.363,0,0,1,.305.046c.193.171.024.582-.107.672-.083.057-.363.123-.489,0S1418.824,1177.686,1418.907,1177.573Zm-2.183,4.366c.118-.747.271-1.46.4-2.2a18.33,18.33,0,0,0-2.015-.015c-.155.711-.264,1.466-.382,2.214h-.748c.293-1.458.532-2.97.794-4.458h.733c-.123.584-.212,1.2-.336,1.786.656.049,1.35.022,2.031.015.106-.6.212-1.193.305-1.8h.763c-.3,1.45-.553,2.948-.794,4.458Zm1.4,0c.209-1.017.4-2.048.55-3.13,0-.021,0-.043.015-.046h.656c-.226,1.02-.407,2.087-.565,3.176Zm3.481-.092c-.413.224-1.392.334-1.542-.244-.132.55-.2,1.169-.29,1.756h-.656c.295-1.507.574-3.029.809-4.6h.565c0,.1-.041.173-.046.275v0a1.734,1.734,0,0,1,1.527-.277C1423.12,1179.193,1422.462,1181.387,1421.61,1181.848Zm4.015-1.618c-.709-.018-1.445-.023-2.153,0-.11.469-.108,1.008.229,1.221a2.1,2.1,0,0,0,1.634-.107c-.029.175-.073.333-.092.519-1.053.256-2.37.294-2.489-.764a2.652,2.652,0,0,1,.55-1.924,1.714,1.714,0,0,1,1.16-.473c.541-.042,1.073.071,1.221.5A2.257,2.257,0,0,1,1425.625,1180.229Zm1.176-.336a12.464,12.464,0,0,0-.336,2.046h-.657c.2-1.043.408-2.076.55-3.176h.58c-.039.175-.059.369-.107.535a1.008,1.008,0,0,1,1.252-.535c-.018.166-.068.3-.077.473A.916.916,0,0,0,1426.8,1179.893Zm3.13,1.954c-.858.3-1.917.254-2.153-.519a2.607,2.607,0,0,1,.519-2.168,2.482,2.482,0,0,1,2.168-.412c-.023.175-.06.337-.077.519a1.608,1.608,0,0,0-1.557.091,2.134,2.134,0,0,0-.443,1.221,1.6,1.6,0,0,0,.061.611c.208.538,1.1.411,1.573.168C1429.989,1181.519,1429.969,1181.692,1429.931,1181.848Zm3.237-1.374a8.779,8.779,0,0,0-.168,1.466h-.565a2,2,0,0,1,.046-.489,1.46,1.46,0,0,1-1.695.473.964.964,0,0,1-.351-1.175c.234-.777,1.123-.958,2.214-.855a.907.907,0,0,0,.076-.489c-.116-.517-1.323-.219-1.71-.122.04-.173.09-.338.122-.519.777-.022,2.165-.319,2.214.519A5.791,5.791,0,0,1,1433.167,1180.474Zm1.191.32a7.216,7.216,0,0,0-.153,1.145h-.672q.33-1.54.565-3.176h.58c-.05.154-.053.354-.107.5a1,1,0,0,1,1.252-.489c-.043.14-.057.309-.092.458C1434.7,1178.946,1434.5,1179.913,1434.358,1180.794Zm3.832,1.145h-.6a3.4,3.4,0,0,1,.061-.473c-.012-.04-.08.1-.122.153a1.137,1.137,0,0,1-.229.229,1.485,1.485,0,0,1-1.618-.137,1.15,1.15,0,0,1-.229-.763c-.018-1.462.97-2.647,2.58-2.138.1-.452.173-.927.229-1.42h.656A41.608,41.608,0,0,0,1438.19,1181.939Z" transform="translate(-1411.319 -1173.481)" fill="#222" fill-rule="evenodd"/>
      <path id="Caminho_44" data-name="Caminho 44" d="M1532.3,1200.682c-.708.079-1.056.962-1.038,1.756.01.453.23.727.672.718,1.034-.022.954-1.459,1.176-2.351A1.727,1.727,0,0,0,1532.3,1200.682Z" transform="translate(-1506.451 -1195.048)" fill="#222" fill-rule="evenodd"/>
    </g>
  </g>
</svg>
