<svg id="Grupo_31" data-name="Grupo 31" xmlns="http://www.w3.org/2000/svg" width="37.646" height="25.235" viewBox="0 0 37.646 25.235">
  <g id="Grupo_28" data-name="Grupo 28">
    <path id="Caminho_32" data-name="Caminho 32" d="M969.352,1169.492h-34.42a1.615,1.615,0,0,1-1.613-1.613V1145.87a1.615,1.615,0,0,1,1.613-1.613h34.42a1.615,1.615,0,0,1,1.613,1.613v22.009A1.615,1.615,0,0,1,969.352,1169.492Zm-34.42-24.822a1.2,1.2,0,0,0-1.2,1.2v22.009a1.2,1.2,0,0,0,1.2,1.2h34.42a1.2,1.2,0,0,0,1.2-1.2V1145.87a1.2,1.2,0,0,0-1.2-1.2Z" transform="translate(-933.319 -1144.257)" fill="#222"/>
  </g>
  <g id="Grupo_30" data-name="Grupo 30" transform="translate(7.763 7.112)">
    <path id="Caminho_33" data-name="Caminho 33" d="M971.54,1194.849a5.344,5.344,0,0,1-.312-.6,4.553,4.553,0,0,1,2.272-5.921,4.559,4.559,0,0,1,4.188.305,4.476,4.476,0,0,1,1.87,2.257c.057.134.107.276.156.4Zm2.73-4.754a2.256,2.256,0,0,0-1.368,2.4l4.112-1.77A2.184,2.184,0,0,0,974.27,1190.1Zm3.256,3.85,0,0-.085-.057a2.408,2.408,0,0,1-1.111.93,2.16,2.16,0,0,1-2.383-.24l-.056.086,0,0-1.043,1.56a4.443,4.443,0,0,0,.829.454,4.526,4.526,0,0,0,5.442-1.672Z" transform="translate(-970.85 -1186.029)" fill="#222"/>
    <path id="Caminho_34" data-name="Caminho 34" d="M1020.129,1178.642v8.676l1.349.547-.766,1.788-1.489-.62a1.688,1.688,0,0,1-.734-.616,1.941,1.941,0,0,1-.288-1.075v-8.7Z" transform="translate(-1008.407 -1178.642)" fill="#222"/>
    <g id="Grupo_29" data-name="Grupo 29" transform="translate(13.145 1.935)">
      <path id="Caminho_35" data-name="Caminho 35" d="M1036.472,1196.884a2.454,2.454,0,0,1,.843-1.851l-1.384-1.543a4.533,4.533,0,0,0,0,6.789l1.382-1.545A2.455,2.455,0,0,1,1036.472,1196.884Z" transform="translate(-1034.401 -1192.353)" fill="#222"/>
      <path id="Caminho_36" data-name="Caminho 36" d="M1050.777,1214.281a2.488,2.488,0,0,1-.779-.127l-.661,1.965a4.536,4.536,0,0,0,5.883-3.384l-2.031-.415A2.461,2.461,0,0,1,1050.777,1214.281Z" transform="translate(-1046.248 -1207.289)" fill="#222"/>
      <path id="Caminho_37" data-name="Caminho 37" d="M1050.82,1188a4.527,4.527,0,0,0-1.437.231l.655,1.967a2.461,2.461,0,0,1,3.189,1.846l2.032-.412A4.535,4.535,0,0,0,1050.82,1188Z" transform="translate(-1046.284 -1187.996)" fill="#222"/>
    </g>
  </g>
</svg>
