<svg id="Grupo_21" data-name="Grupo 21" xmlns="http://www.w3.org/2000/svg" width="37.646" height="25.235" viewBox="0 0 37.646 25.235">
  <path id="Caminho_8" data-name="Caminho 8" d="M49.352,1169.492H14.932a1.615,1.615,0,0,1-1.613-1.613V1145.87a1.615,1.615,0,0,1,1.613-1.613h34.42a1.615,1.615,0,0,1,1.613,1.613v22.009A1.615,1.615,0,0,1,49.352,1169.492Zm-34.42-24.822a1.2,1.2,0,0,0-1.2,1.2v22.009a1.2,1.2,0,0,0,1.2,1.2h34.42a1.2,1.2,0,0,0,1.2-1.2V1145.87a1.2,1.2,0,0,0-1.2-1.2Z" transform="translate(-13.319 -1144.257)" fill="#222"/>
  <g id="Grupo_20" data-name="Grupo 20" transform="translate(2.482 7.925)">
    <g id="Grupo_19" data-name="Grupo 19">
      <path id="Caminho_9" data-name="Caminho 9" d="M77.457,1192.424l1.549-9.093h2.48l-1.551,9.093Z" transform="translate(-66.673 -1183.174)" fill="#222"/>
      <path id="Caminho_10" data-name="Caminho 10" d="M104.376,1182.95a6.392,6.392,0,0,0-2.222-.382c-2.449,0-4.174,1.233-4.189,3-.014,1.307,1.231,2.036,2.172,2.471.965.446,1.289.729,1.286,1.128-.007.609-.771.887-1.484.887a5.184,5.184,0,0,1-2.332-.477l-.319-.144-.348,2.036a7.839,7.839,0,0,0,2.761.485c2.606,0,4.3-1.22,4.316-3.107.01-1.033-.651-1.821-2.08-2.469-.867-.421-1.4-.7-1.392-1.128,0-.378.449-.782,1.42-.782a4.562,4.562,0,0,1,1.854.348l.224.105.336-1.971Z" transform="translate(-82.125 -1182.568)" fill="#222"/>
      <path id="Caminho_11" data-name="Caminho 11" d="M137.189,1183.373h-1.915a1.233,1.233,0,0,0-1.3.755l-3.68,8.333h2.6s.425-1.12.521-1.367l3.175,0c.073.318.3,1.362.3,1.362h2.3l-2.006-9.088Zm-3.056,5.861c.205-.524.987-2.542.987-2.542-.013.024.2-.527.329-.868l.168.784.574,2.626Z" transform="translate(-108.582 -1183.206)" fill="#222"/>
      <path id="Caminho_12" data-name="Caminho 12" d="M34.025,1183.344l-2.427,6.2-.26-1.26-.868-4.18a1.036,1.036,0,0,0-1.123-.767h-4l-.03.188a10.405,10.405,0,0,1,2.6,1l2.2,7.9,2.622,0,3.9-9.076Z" transform="translate(-25.319 -1183.179)" fill="#222"/>
    </g>
  </g>
</svg>
