<svg xmlns="http://www.w3.org/2000/svg" width="20" height="13.75" viewBox="0 0 20 13.75">
    <g transform="translate(0 -80)">
        <path d="M17.813,80H2.188A2.19,2.19,0,0,0,0,82.188v9.375A2.19,2.19,0,0,0,2.188,93.75H17.813A2.19,2.19,0,0,0,20,91.563V82.188A2.19,2.19,0,0,0,17.813,80ZM2.188,81.25H17.813a.939.939,0,0,1,.938.938v1.25H1.25v-1.25A.939.939,0,0,1,2.188,81.25ZM17.813,92.5H2.188a.939.939,0,0,1-.937-.937V84.688h17.5v6.875A.939.939,0,0,1,17.813,92.5Z"></path>
        <path d="M81.222,305.832h-.611a.611.611,0,0,1-.611-.611v-.611a.611.611,0,0,1,.611-.611h.611a.611.611,0,0,1,.611.611v.611A.611.611,0,0,1,81.222,305.832Z" transform="translate(-76.868 -215.219)"></path>
    </g>
</svg>