<svg xmlns="http://www.w3.org/2000/svg" width="20" height="19.999" viewBox="0 0 20 19.999">
<g transform="translate(0 -0.011)">
    <g transform="translate(2.5 13.585)">
        <g>
            <path d="M67.368,348.626l-2.5-1.062a.625.625,0,1,0-.488,1.15l2.5,1.062a.624.624,0,1,0,.488-1.15Z" transform="translate(-64 -347.514)"></path>
        </g>
    </g>
    <g transform="translate(0 0.011)">
        <g>
            <path d="M19.991,4.356a.638.638,0,0,0-.031-.191.561.561,0,0,0-.059-.094c-.014-.023-.024-.043-.039-.063a.6.6,0,0,0-.26-.2S19.6,3.8,19.594,3.8L9.594.053a.611.611,0,0,0-.465.009L.379,3.81c-.009,0-.012.014-.021.017a.605.605,0,0,0-.219.184.652.652,0,0,0-.047.068.509.509,0,0,0-.041.06A.627.627,0,0,0,0,4.384H0v11.25a.626.626,0,0,0,.379.575l8.75,3.75h0a.622.622,0,0,0,.245.05.634.634,0,0,0,.22-.04l.023-.009h0L19.6,16.22a.625.625,0,0,0,.4-.585V4.385C20,4.374,19.991,4.366,19.991,4.356ZM8.75,18.436l-7.5-3.214V5.334l7.5,3.214ZM9.39,7.461,2.212,4.385,9.39,1.31,17.6,4.385l-1.956.734L12.131,3.548a.614.614,0,0,0-.549.021L9.131,4.61a.627.627,0,0,0,.006,1.156l2.274.939Zm4.36-.3L15,6.693V9.739l-1.25.469Zm-.623-1.1L10.99,5.179l.885-.376,2.1.94ZM18.75,15.2,10,18.483V8.568l2.5-.938v3.48a.625.625,0,0,0,.625.625.639.639,0,0,0,.22-.04l2.5-.938a.626.626,0,0,0,.4-.585V6.224l2.5-.938Z" transform="translate(0 -0.011)"></path>
        </g>
    </g>
</g>
</svg>